<svg width="25" height="24" viewBox="0 0 25 24" fill="none" xmlns="http://www.w3.org/2000/svg"><path d="M23.2143 0H1.78013C0.797991 0 0 0.776786 0 1.73036V22.2696C0 23.2232 0.797991 24 1.78013 24H23.2143C24.1964 24 25 23.2232 25 22.2696V1.73036C25 0.776786 24.1964 0 23.2143 0ZM7.5558 20.5714H3.85045V9.11786H7.56138V20.5714H7.5558ZM5.70312 7.55357C4.51451 7.55357 3.55469 6.62679 3.55469 5.49107C3.55469 4.35536 4.51451 3.42857 5.70312 3.42857C6.88616 3.42857 7.85156 4.35536 7.85156 5.49107C7.85156 6.63214 6.89174 7.55357 5.70312 7.55357ZM21.4453 20.5714H17.74V15C17.74 13.6714 17.7121 11.9625 15.8147 11.9625C13.8839 11.9625 13.5882 13.4089 13.5882 14.9036V20.5714H9.88281V9.11786H13.4375V10.6821H13.4877C13.9844 9.78214 15.1953 8.83393 16.9978 8.83393C20.7478 8.83393 21.4453 11.2071 21.4453 14.2929V20.5714Z" fill="#fff" /></svg>