<svg xmlns="http://www.w3.org/2000/svg" width="32" height="30" viewBox="0 0 32 30">
  <path id="icoWApp" data-name="icoWApp" fill="#fff" fill-rule="evenodd" d="M2.813,0H29.188A2.813,2.813,0,0,1,32,2.813V27.188A2.813,2.813,0,0,1,29.188,30H2.813A2.813,2.813,0,0,1,0,27.188V2.813A2.813,2.813,0,0,1,2.813,0ZM15.154,2.813c5.921-.082,9.259,2.608,11.5,6.17l0.153,0.457h0.077V9.592h0.077l0.153,0.457H27.2v0.229h0.077V10.43h0.077l0.077,0.457a10.73,10.73,0,0,1,.46,6.4l-0.153.99H27.655V18.5H27.579v0.228H27.5v0.229H27.425V19.19H27.349v0.152H27.272V19.57H27.2l-0.153.457H26.965V20.18H26.889v0.229l-0.153.076v0.152H26.658v0.152H26.582v0.152H26.505v0.152H26.428l-0.077.228L26.2,21.4l-0.077.3-0.153.076-0.077.229-0.23.152v0.152l-0.23.152v0.152l-0.614.533V23.3l-0.383.3-0.077.152H24.2l-0.46.533H23.591l-0.153.229-0.23.076-0.077.152H22.977L22.9,24.9l-0.23.076v0.076H22.517l-0.077.152-0.307.076-0.077.152-0.46.152v0.076H21.443V25.74H21.29v0.076l-0.46.152v0.076H20.6v0.076H20.446V26.2l-0.46.076V26.35h-0.23v0.076h-0.23V26.5H19.3v0.076l-0.614.076v0.076H18.3a9.51,9.51,0,0,1-2.608.229h-1V26.883H14.157V26.807H13.7V26.731H13.313V26.654L12.7,26.578V26.5H12.47V26.426H12.24V26.35h-0.23V26.273l-0.46-.076a2.853,2.853,0,0,0-1.15-.457v0.076H10.015c-0.782.246-1.752,0.439-2.531,0.686l-1,.152v0.076H6.18v0.076H5.8v0.076H5.49v0.076H5.183a3.175,3.175,0,0,1-1.074.229,1.052,1.052,0,0,1-.23-0.838,2.1,2.1,0,0,0,.153-0.762c0.174-.559.289-1.276,0.46-1.828V23.379c0.172-.552.288-1.288,0.46-1.828V21.17a1.727,1.727,0,0,0,.153-0.914H5.03V20.027H4.953l-0.077-.3H4.8V19.57H4.723V19.342H4.647V19.19H4.57V18.961H4.493V18.732H4.416V18.5H4.34V18.275H4.263l-0.153-.99a9.949,9.949,0,0,1,.077-5.1V11.8H4.263V11.572H4.34V11.344H4.416v-0.3H4.493V10.887H4.57l0.077-.457H4.723V10.277H4.8V10.049H4.877L5.03,9.592H5.107V9.439H5.183l0.153-.457L5.49,8.906l0.153-.457L5.8,8.373V8.221L5.95,8.145V7.992L6.18,7.84V7.688l0.153-.076,0.077-.229,0.383-.3V6.926l0.46-.381,0.69-.762H8.1L8.4,5.4H8.558l0.153-.229L8.942,5.1l0.077-.152H9.172l0.077-.152H9.4l0.077-.152,0.307-.076,0.077-.152h0.153V4.336h0.153V4.26h0.153V4.184h0.153V4.107h0.153V4.031h0.153V3.955l0.46-.152V3.727L11.7,3.65V3.574h0.153V3.5l1.994-.533A5.63,5.63,0,0,0,15.154,2.813ZM15.691,5.4a3.116,3.116,0,0,1-.92.076V5.555H14.234V5.631H13.85V5.707H13.543V5.783h-0.23V5.859h-0.23V5.936h-0.23V6.012l-0.46.076V6.164l-0.46.152V6.393H11.779V6.469H11.626V6.545H11.473V6.621l-0.46.152V6.85l-0.23.076-0.077.152H10.552l-0.077.152H10.322l-0.23.3H9.939l-0.46.533H9.325V8.145L9.095,8.3V8.449l-0.537.457V9.059l-0.23.152-0.077.229L8.1,9.516V9.668l-0.153.076-0.077.3-0.153.076-0.153.457H7.484v0.152H7.408l-0.153.457H7.178V11.42H7.1v0.152H7.024V11.8H6.947v0.228H6.871l-0.077.533H6.717v0.381H6.641v0.381a6.411,6.411,0,0,0-.077,2.666v0.533l0.537,1.9H7.178l0.077,0.3H7.331v0.152H7.408v0.229H7.484v0.152H7.561v0.152H7.638V19.57l0.153,0.076,0.077,0.3H7.945L7.714,21.17H7.638l-0.46,2.666H7.254V23.76l1-.152V23.531H8.558V23.455H8.942V23.379H9.248V23.3H9.555V23.227H9.862V23.15l0.69-.076V23h0.307V22.922h0.077V23l0.307,0.076V23.15H11.4v0.076h0.153V23.3H11.7v0.076h0.153v0.076l0.46,0.152v0.076l0.46,0.076v0.076h0.23v0.076h0.23v0.076h0.23v0.076l0.614,0.076v0.076h0.46v0.076h0.614v0.076l2.3-.076V24.217l1.381-.229V23.912l0.46-.076V23.76h0.153V23.684h0.23V23.607l0.46-.152V23.379h0.153V23.3h0.153V23.227l0.46-.152,0.077-.152h0.153l0.077-.152h0.153V22.693l0.23-.076,0.077-.152h0.153l0.23-.3H22.21l0.46-.533,0.613-.533V20.941l0.307-.229,0.077-.229,0.153-.076V20.256l0.153-.076,0.92-1.752V18.2h0.077V17.971h0.077V17.742h0.077V17.514H25.2l0.077-.609h0.077V16.523a6.4,6.4,0,0,0,.077-2.666V13.324H25.355V12.943H25.278V12.563H25.2V12.334H25.124L25.048,11.8H24.971V11.648H24.894l-0.077-.457H24.741l-0.153-.457H24.511V10.582H24.434l-0.153-.457-0.153-.076V9.9L23.974,9.82V9.668H23.9l-0.077-.229-0.153-.076V9.211L23.36,8.982A9.347,9.347,0,0,0,15.691,5.4ZM11.779,9.059a2.86,2.86,0,0,1,.767.152l0.46,0.762v0.152h0.077l0.077,0.381h0.077l0.077,0.3H13.39v0.229h0.077l0.077,0.3H13.62v0.229H13.7a1.291,1.291,0,0,1,.153.914H13.773v0.152l-0.153.076v0.152l-0.23.152a1.207,1.207,0,0,0-.383,1.143h0.077v0.152H13.16v0.152l0.153,0.076V14.7l0.23,0.152,0.077,0.229L14,15.381l0.767,0.838h0.153l0.383,0.457h0.153l0.23,0.3h0.153L16,17.209h0.153l0.077,0.152h0.153l0.077,0.152h0.153l0.077,0.152h0.153v0.076a1.8,1.8,0,0,0,.92.152,0.728,0.728,0,0,1,.307-0.152l0.23-.3,0.69-.609a4.922,4.922,0,0,1,1.917.457h0.307v0.076h0.23v0.076l0.69,0.152,0.384,0.457a1.631,1.631,0,0,1-.153.914l-0.153.076V19.19l-0.23.152v0.152l-0.23.152a4.771,4.771,0,0,1-.767.762l-0.307.076v0.076h-0.23a4.378,4.378,0,0,1-2.915-.076H17.225V20.408H17.071V20.332h-0.23V20.256H16.688V20.18h-0.23V20.1l-0.307-.076V19.951l-0.307-.076-0.077-.152-0.307-.076-0.077-.152H15.231V19.418L15,19.342l-0.077-.152H14.771l-0.153-.229H14.464l-0.077-.152H14.234L14.08,18.58,13.85,18.5l-0.46-.533H13.237L12.93,17.59l-0.92-.838V16.6l-0.383-.3V16.143l-0.307-.229-0.077-.229-0.153-.076-0.077-.3-0.153-.076L10.782,15H10.706l-0.153-.457H10.476l-0.153-.457H10.245V13.857H10.169A5.861,5.861,0,0,1,9.862,11.5H9.939v-0.3h0.077V10.963h0.077l0.077-.3h0.077V10.506L10.4,10.43V10.277l0.307-.229V9.9l0.383-.3,0.077-.152h0.153l0.23-.3h0.23V9.059Z"/>
</svg>