<svg width="25" height="24" viewBox="0 0 25 24" fill="none" xmlns="http://www.w3.org/2000/svg"><path d="M22.3214 0H2.67857C1.96817 0 1.28686 0.270918 0.784535 0.753154C0.282206 1.23539 0 1.88944 0 2.57143L0 21.4286C0 22.1106 0.282206 22.7646 0.784535 23.2468C1.28686 23.7291 1.96817 24 2.67857 24H10.3376V15.8405H6.82199V12H10.3376V9.07286C10.3376 5.74339 12.4023 3.90429 15.5647 3.90429C17.0792 3.90429 18.6629 4.16357 18.6629 4.16357V7.43143H16.918C15.1987 7.43143 14.6624 8.45571 14.6624 9.50625V12H18.5006L17.8867 15.8405H14.6624V24H22.3214C23.0318 24 23.7131 23.7291 24.2155 23.2468C24.7178 22.7646 25 22.1106 25 21.4286V2.57143C25 1.88944 24.7178 1.23539 24.2155 0.753154C23.7131 0.270918 23.0318 0 22.3214 0Z" fill="#fff" /></svg>